<?xml version="1.0" standalone="no"?>
<!DOCTYPE svg PUBLIC "-//W3C//DTD SVG 20010904//EN"
 "http://www.w3.org/TR/2001/REC-SVG-20010904/DTD/svg10.dtd">
<svg version="1.0" xmlns="http://www.w3.org/2000/svg"
 width="539.000000pt" height="539.000000pt" viewBox="0 0 539.000000 539.000000"
 preserveAspectRatio="xMidYMid meet">
<metadata>
Created by potrace 1.16, written by Peter Selinger 2001-2019
</metadata>
<g transform="translate(0.000000,539.000000) scale(0.100000,-0.100000)"
fill="#000000" stroke="none">
<path d="M0 2695 l0 -2695 2695 0 2695 0 0 2695 0 2695 -2695 0 -2695 0 0
-2695z m2882 814 c185 -39 341 -194 379 -377 23 -115 -10 -319 -57 -345 -8 -4
-14 -14 -14 -22 0 -23 -50 -55 -86 -55 l-34 0 0 161 0 162 42 -6 c29 -4 50
-14 65 -32 l23 -26 0 59 c0 266 -264 476 -515 408 -183 -48 -310 -202 -323
-388 l-5 -83 24 28 c17 20 37 30 67 34 l42 6 0 -163 0 -163 -41 6 c-42 5 -79
30 -79 53 0 7 -6 17 -14 21 -45 27 -80 240 -56 344 61 265 319 433 582 378z
m-662 -419 c0 -27 -6 -33 -45 -50 -111 -48 -188 -167 -188 -292 0 -124 71
-230 193 -287 l55 -26 535 -3 c399 -2 546 0 579 9 58 16 125 81 141 136 17 57
5 122 -30 172 -28 39 -93 81 -124 81 -12 0 -13 6 -6 31 13 43 14 44 60 29 53
-17 113 -70 148 -128 23 -41 27 -58 27 -127 0 -96 -21 -142 -91 -204 -83 -73
-79 -72 -705 -69 l-554 3 -67 32 c-124 58 -204 161 -227 290 -32 173 70 360
225 417 62 23 74 21 74 -14z m1120 -946 c109 -44 115 -223 10 -276 -67 -34
-161 -15 -202 42 -30 41 -34 109 -10 164 17 37 30 51 64 66 53 24 85 25 138 4z
m-280 -139 c0 -136 -1 -145 -19 -145 -11 0 -21 5 -23 10 -2 7 -15 5 -36 -5
-26 -13 -39 -14 -66 -5 -51 17 -71 44 -71 100 0 82 68 130 136 96 18 -9 34
-16 36 -16 1 0 3 25 3 55 0 48 2 55 20 55 19 0 20 -7 20 -145z m470 51 c0 -13
4 -13 28 0 41 21 70 17 103 -15 27 -27 29 -35 29 -105 0 -74 -1 -76 -25 -76
-24 0 -25 2 -25 63 0 75 -21 104 -65 93 -31 -8 -45 -40 -45 -107 0 -46 -2 -49
-25 -49 -25 0 -25 0 -25 98 0 54 3 102 7 105 12 13 43 7 43 -7z"/>
<path d="M3228 2094 c-36 -19 -48 -43 -48 -94 0 -33 6 -48 30 -72 27 -27 36
-30 72 -25 50 7 77 32 85 80 7 48 -12 94 -48 112 -35 19 -56 18 -91 -1z"/>
</g>
</svg>
